<svg xmlns="http://www.w3.org/2000/svg" xmlns:xlink="http://www.w3.org/1999/xlink" width="40" zoomAndPan="magnify" viewBox="0 0 30 30.000001" height="40" preserveAspectRatio="xMidYMid meet" version="1.0"><defs><clipPath id="af754f2869"><path d="M 0.484375 0 L 29.515625 0 L 29.515625 29.03125 L 0.484375 29.03125 Z M 0.484375 0 " clip-rule="nonzero"/></clipPath><linearGradient x1="20" gradientTransform="matrix(0.725806, 0, 0, 0.725806, 0.48387, 0.00000193548)" y1="-0" x2="20" gradientUnits="userSpaceOnUse" y2="39.999998" id="4894396fde"><stop stop-opacity="1" stop-color="rgb(97.24884%, 17.248535%, 66.268921%)" offset="0"/><stop stop-opacity="1" stop-color="rgb(97.270203%, 17.425537%, 66.351318%)" offset="0.015625"/><stop stop-opacity="1" stop-color="rgb(97.312927%, 17.781067%, 66.517639%)" offset="0.03125"/><stop stop-opacity="1" stop-color="rgb(97.357178%, 18.136597%, 66.682434%)" offset="0.046875"/><stop stop-opacity="1" stop-color="rgb(97.399902%, 18.492126%, 66.848755%)" offset="0.0625"/><stop stop-opacity="1" stop-color="rgb(97.442627%, 18.847656%, 67.01355%)" offset="0.078125"/><stop stop-opacity="1" stop-color="rgb(97.485352%, 19.203186%, 67.178345%)" offset="0.09375"/><stop stop-opacity="1" stop-color="rgb(97.528076%, 19.558716%, 67.344666%)" offset="0.109375"/><stop stop-opacity="1" stop-color="rgb(97.570801%, 19.914246%, 67.50946%)" offset="0.125"/><stop stop-opacity="1" stop-color="rgb(97.615051%, 20.269775%, 67.675781%)" offset="0.140625"/><stop stop-opacity="1" stop-color="rgb(97.657776%, 20.625305%, 67.840576%)" offset="0.15625"/><stop stop-opacity="1" stop-color="rgb(97.7005%, 20.980835%, 68.006897%)" offset="0.171875"/><stop stop-opacity="1" stop-color="rgb(97.743225%, 21.336365%, 68.171692%)" offset="0.1875"/><stop stop-opacity="1" stop-color="rgb(97.78595%, 21.691895%, 68.338013%)" offset="0.203125"/><stop stop-opacity="1" stop-color="rgb(97.828674%, 22.047424%, 68.502808%)" offset="0.21875"/><stop stop-opacity="1" stop-color="rgb(97.871399%, 22.402954%, 68.667603%)" offset="0.234375"/><stop stop-opacity="1" stop-color="rgb(97.915649%, 22.758484%, 68.833923%)" offset="0.25"/><stop stop-opacity="1" stop-color="rgb(97.958374%, 23.114014%, 68.998718%)" offset="0.265625"/><stop stop-opacity="1" stop-color="rgb(98.001099%, 23.469543%, 69.165039%)" offset="0.28125"/><stop stop-opacity="1" stop-color="rgb(98.043823%, 23.825073%, 69.329834%)" offset="0.296875"/><stop stop-opacity="1" stop-color="rgb(98.086548%, 24.180603%, 69.496155%)" offset="0.3125"/><stop stop-opacity="1" stop-color="rgb(98.129272%, 24.536133%, 69.66095%)" offset="0.328125"/><stop stop-opacity="1" stop-color="rgb(98.173523%, 24.891663%, 69.825745%)" offset="0.34375"/><stop stop-opacity="1" stop-color="rgb(98.216248%, 25.247192%, 69.992065%)" offset="0.359375"/><stop stop-opacity="1" stop-color="rgb(98.258972%, 25.602722%, 70.15686%)" offset="0.375"/><stop stop-opacity="1" stop-color="rgb(98.301697%, 25.956726%, 70.323181%)" offset="0.390625"/><stop stop-opacity="1" stop-color="rgb(98.344421%, 26.312256%, 70.487976%)" offset="0.40625"/><stop stop-opacity="1" stop-color="rgb(98.387146%, 26.667786%, 70.654297%)" offset="0.421875"/><stop stop-opacity="1" stop-color="rgb(98.431396%, 27.023315%, 70.819092%)" offset="0.4375"/><stop stop-opacity="1" stop-color="rgb(98.474121%, 27.378845%, 70.985413%)" offset="0.453125"/><stop stop-opacity="1" stop-color="rgb(98.516846%, 27.734375%, 71.150208%)" offset="0.46875"/><stop stop-opacity="1" stop-color="rgb(98.55957%, 28.089905%, 71.315002%)" offset="0.484375"/><stop stop-opacity="1" stop-color="rgb(98.602295%, 28.445435%, 71.481323%)" offset="0.5"/><stop stop-opacity="1" stop-color="rgb(98.64502%, 28.800964%, 71.646118%)" offset="0.515625"/><stop stop-opacity="1" stop-color="rgb(98.68927%, 29.156494%, 71.812439%)" offset="0.53125"/><stop stop-opacity="1" stop-color="rgb(98.731995%, 29.512024%, 71.977234%)" offset="0.546875"/><stop stop-opacity="1" stop-color="rgb(98.774719%, 29.867554%, 72.143555%)" offset="0.5625"/><stop stop-opacity="1" stop-color="rgb(98.817444%, 30.223083%, 72.30835%)" offset="0.578125"/><stop stop-opacity="1" stop-color="rgb(98.860168%, 30.578613%, 72.47467%)" offset="0.59375"/><stop stop-opacity="1" stop-color="rgb(98.902893%, 30.934143%, 72.639465%)" offset="0.609375"/><stop stop-opacity="1" stop-color="rgb(98.945618%, 31.289673%, 72.80426%)" offset="0.625"/><stop stop-opacity="1" stop-color="rgb(98.989868%, 31.645203%, 72.970581%)" offset="0.640625"/><stop stop-opacity="1" stop-color="rgb(99.032593%, 32.000732%, 73.135376%)" offset="0.65625"/><stop stop-opacity="1" stop-color="rgb(99.075317%, 32.356262%, 73.301697%)" offset="0.671875"/><stop stop-opacity="1" stop-color="rgb(99.118042%, 32.711792%, 73.466492%)" offset="0.6875"/><stop stop-opacity="1" stop-color="rgb(99.160767%, 33.067322%, 73.632812%)" offset="0.703125"/><stop stop-opacity="1" stop-color="rgb(99.203491%, 33.422852%, 73.797607%)" offset="0.71875"/><stop stop-opacity="1" stop-color="rgb(99.247742%, 33.778381%, 73.963928%)" offset="0.734375"/><stop stop-opacity="1" stop-color="rgb(99.290466%, 34.133911%, 74.128723%)" offset="0.75"/><stop stop-opacity="1" stop-color="rgb(99.333191%, 34.489441%, 74.293518%)" offset="0.765625"/><stop stop-opacity="1" stop-color="rgb(99.375916%, 34.843445%, 74.459839%)" offset="0.78125"/><stop stop-opacity="1" stop-color="rgb(99.41864%, 35.198975%, 74.624634%)" offset="0.796875"/><stop stop-opacity="1" stop-color="rgb(99.461365%, 35.554504%, 74.790955%)" offset="0.8125"/><stop stop-opacity="1" stop-color="rgb(99.505615%, 35.910034%, 74.95575%)" offset="0.828125"/><stop stop-opacity="1" stop-color="rgb(99.54834%, 36.265564%, 75.12207%)" offset="0.84375"/><stop stop-opacity="1" stop-color="rgb(99.591064%, 36.621094%, 75.286865%)" offset="0.859375"/><stop stop-opacity="1" stop-color="rgb(99.633789%, 36.976624%, 75.45166%)" offset="0.875"/><stop stop-opacity="1" stop-color="rgb(99.676514%, 37.332153%, 75.617981%)" offset="0.890625"/><stop stop-opacity="1" stop-color="rgb(99.719238%, 37.687683%, 75.782776%)" offset="0.90625"/><stop stop-opacity="1" stop-color="rgb(99.763489%, 38.043213%, 75.949097%)" offset="0.921875"/><stop stop-opacity="1" stop-color="rgb(99.806213%, 38.398743%, 76.113892%)" offset="0.9375"/><stop stop-opacity="1" stop-color="rgb(99.848938%, 38.754272%, 76.280212%)" offset="0.953125"/><stop stop-opacity="1" stop-color="rgb(99.891663%, 39.109802%, 76.445007%)" offset="0.96875"/><stop stop-opacity="1" stop-color="rgb(99.934387%, 39.465332%, 76.611328%)" offset="0.984375"/><stop stop-opacity="1" stop-color="rgb(99.977112%, 39.820862%, 76.776123%)" offset="1"/></linearGradient><clipPath id="b74b0968cf"><path d="M 21.863281 7.738281 L 25.492188 7.738281 L 25.492188 11.367188 L 21.863281 11.367188 Z M 21.863281 7.738281 " clip-rule="nonzero"/></clipPath><clipPath id="f695eebdb7"><path d="M 23.679688 7.738281 C 22.675781 7.738281 21.863281 8.550781 21.863281 9.550781 C 21.863281 10.554688 22.675781 11.367188 23.679688 11.367188 C 24.679688 11.367188 25.492188 10.554688 25.492188 9.550781 C 25.492188 8.550781 24.679688 7.738281 23.679688 7.738281 Z M 23.679688 7.738281 " clip-rule="nonzero"/></clipPath><clipPath id="cd6d3360ad"><path d="M 0.863281 0.738281 L 4.492188 0.738281 L 4.492188 4.367188 L 0.863281 4.367188 Z M 0.863281 0.738281 " clip-rule="nonzero"/></clipPath><clipPath id="e097cfbb80"><path d="M 2.679688 0.738281 C 1.675781 0.738281 0.863281 1.550781 0.863281 2.550781 C 0.863281 3.554688 1.675781 4.367188 2.679688 4.367188 C 3.679688 4.367188 4.492188 3.554688 4.492188 2.550781 C 4.492188 1.550781 3.679688 0.738281 2.679688 0.738281 Z M 2.679688 0.738281 " clip-rule="nonzero"/></clipPath><clipPath id="15cb4c6f36"><rect x="0" width="5" y="0" height="5"/></clipPath><clipPath id="99327bccd8"><path d="M 5.316406 7.738281 L 8.945312 7.738281 L 8.945312 11.367188 L 5.316406 11.367188 Z M 5.316406 7.738281 " clip-rule="nonzero"/></clipPath><clipPath id="f2dcb51bb8"><path d="M 7.128906 7.738281 C 6.128906 7.738281 5.316406 8.550781 5.316406 9.550781 C 5.316406 10.554688 6.128906 11.367188 7.128906 11.367188 C 8.132812 11.367188 8.945312 10.554688 8.945312 9.550781 C 8.945312 8.550781 8.132812 7.738281 7.128906 7.738281 Z M 7.128906 7.738281 " clip-rule="nonzero"/></clipPath><clipPath id="c45cb1dfb8"><path d="M 0.316406 0.738281 L 3.945312 0.738281 L 3.945312 4.367188 L 0.316406 4.367188 Z M 0.316406 0.738281 " clip-rule="nonzero"/></clipPath><clipPath id="ec9c6a43d4"><path d="M 2.128906 0.738281 C 1.128906 0.738281 0.316406 1.550781 0.316406 2.550781 C 0.316406 3.554688 1.128906 4.367188 2.128906 4.367188 C 3.132812 4.367188 3.945312 3.554688 3.945312 2.550781 C 3.945312 1.550781 3.132812 0.738281 2.128906 0.738281 Z M 2.128906 0.738281 " clip-rule="nonzero"/></clipPath><clipPath id="7bfd102513"><rect x="0" width="4" y="0" height="5"/></clipPath><clipPath id="aea4f453a7"><path d="M 9.398438 15.011719 L 23.914062 15.011719 L 23.914062 21.542969 L 9.398438 21.542969 Z M 9.398438 15.011719 " clip-rule="nonzero"/></clipPath></defs><g clip-path="url(#af754f2869)"><path fill="url(#4894396fde)" d="M 0.484375 0 L 0.484375 29.03125 L 29.515625 29.03125 L 29.515625 0 Z M 0.484375 0 " fill-rule="nonzero"/></g><g clip-path="url(#b74b0968cf)"><g clip-path="url(#f695eebdb7)"><g transform="matrix(1, 0, 0, 1, 21, 7)"><g clip-path="url(#15cb4c6f36)"><g clip-path="url(#cd6d3360ad)"><g clip-path="url(#e097cfbb80)"><path fill="#ffffff" d="M 0.863281 0.738281 L 4.492188 0.738281 L 4.492188 4.367188 L 0.863281 4.367188 Z M 0.863281 0.738281 " fill-opacity="1" fill-rule="nonzero"/></g></g></g></g></g></g><g clip-path="url(#99327bccd8)"><g clip-path="url(#f2dcb51bb8)"><g transform="matrix(1, 0, 0, 1, 5, 7)"><g clip-path="url(#7bfd102513)"><g clip-path="url(#c45cb1dfb8)"><g clip-path="url(#ec9c6a43d4)"><path fill="#ffffff" d="M 0.316406 0.738281 L 3.945312 0.738281 L 3.945312 4.367188 L 0.316406 4.367188 Z M 0.316406 0.738281 " fill-opacity="1" fill-rule="nonzero"/></g></g></g></g></g></g><g clip-path="url(#aea4f453a7)"><path fill="#ffffff" d="M 16.53125 21.75 C 16.121094 21.75 15.71875 21.714844 15.316406 21.644531 C 14.910156 21.574219 14.519531 21.46875 14.132812 21.328125 C 13.75 21.1875 13.378906 21.015625 13.027344 20.8125 C 12.671875 20.609375 12.335938 20.375 12.023438 20.113281 C 11.710938 19.851562 11.421875 19.5625 11.15625 19.25 C 10.894531 18.9375 10.65625 18.605469 10.453125 18.253906 C 10.246094 17.898438 10.074219 17.53125 9.929688 17.148438 C 9.789062 16.765625 9.683594 16.371094 9.609375 15.96875 C 9.570312 15.761719 9.613281 15.570312 9.730469 15.394531 C 9.851562 15.222656 10.015625 15.113281 10.222656 15.078125 C 10.429688 15.039062 10.621094 15.078125 10.796875 15.199219 C 10.96875 15.316406 11.078125 15.480469 11.113281 15.6875 C 11.238281 16.320312 11.460938 16.914062 11.785156 17.46875 C 12.113281 18.023438 12.523438 18.507812 13.019531 18.921875 C 13.511719 19.335938 14.0625 19.652344 14.664062 19.875 C 15.269531 20.097656 15.894531 20.210938 16.539062 20.21875 C 16.558594 20.21875 16.582031 20.21875 16.601562 20.21875 C 17.242188 20.207031 17.859375 20.089844 18.457031 19.867188 C 19.054688 19.640625 19.597656 19.320312 20.085938 18.910156 C 20.574219 18.496094 20.976562 18.011719 21.296875 17.460938 C 21.617188 16.90625 21.835938 16.316406 21.953125 15.691406 C 21.988281 15.480469 22.097656 15.316406 22.269531 15.199219 C 22.445312 15.078125 22.636719 15.039062 22.84375 15.074219 C 23.050781 15.113281 23.214844 15.222656 23.335938 15.394531 C 23.453125 15.570312 23.496094 15.761719 23.457031 15.96875 C 23.382812 16.367188 23.277344 16.753906 23.136719 17.136719 C 22.996094 17.515625 22.824219 17.878906 22.621094 18.230469 C 22.417969 18.582031 22.183594 18.910156 21.925781 19.222656 C 21.664062 19.53125 21.378906 19.816406 21.070312 20.078125 C 20.761719 20.339844 20.433594 20.574219 20.082031 20.777344 C 19.734375 20.984375 19.371094 21.15625 18.988281 21.296875 C 18.609375 21.441406 18.222656 21.550781 17.824219 21.625 C 17.425781 21.699219 17.027344 21.742188 16.621094 21.75 Z M 16.53125 21.75 " fill-opacity="1" fill-rule="nonzero"/></g></svg>