<svg xmlns="http://www.w3.org/2000/svg" xmlns:xlink="http://www.w3.org/1999/xlink" width="40" zoomAndPan="magnify" viewBox="0 0 30 30.000001" height="40" preserveAspectRatio="xMidYMid meet" version="1.0"><defs><clipPath id="abaf3504ac"><path d="M 5.566406 2.902344 L 24.433594 2.902344 L 24.433594 26.128906 L 5.566406 26.128906 Z M 5.566406 2.902344 " clip-rule="nonzero"/></clipPath></defs><g clip-path="url(#abaf3504ac)"><path fill="#ffffff" d="M 7.261719 12.847656 L 7.261719 18.695312 C 7.261719 19.121094 7.160156 19.550781 6.96875 19.933594 L 5.660156 22.550781 C 5.574219 22.71875 5.585938 22.925781 5.683594 23.085938 C 5.785156 23.25 5.964844 23.351562 6.15625 23.351562 L 11.734375 23.351562 C 11.996094 24.914062 13.359375 26.113281 15 26.113281 C 15.882812 26.113281 16.714844 25.769531 17.351562 25.140625 C 17.839844 24.644531 18.15625 24.023438 18.269531 23.351562 L 23.84375 23.351562 C 24.035156 23.351562 24.214844 23.25 24.316406 23.085938 C 24.414062 22.925781 24.425781 22.71875 24.339844 22.550781 L 23.03125 19.933594 C 22.839844 19.550781 22.738281 19.121094 22.738281 18.695312 L 22.738281 12.847656 C 22.738281 10.78125 21.933594 8.839844 20.46875 7.375 C 19.550781 6.453125 18.421875 5.785156 17.175781 5.417969 C 17.191406 5.316406 17.210938 5.214844 17.210938 5.105469 C 17.210938 3.886719 16.21875 2.894531 15 2.894531 C 13.78125 2.894531 12.789062 3.886719 12.789062 5.105469 C 12.789062 5.214844 12.808594 5.316406 12.824219 5.421875 C 9.566406 6.375 7.261719 9.410156 7.261719 12.847656 Z M 16.566406 24.359375 C 16.144531 24.777344 15.589844 25.007812 15 25.007812 C 13.972656 25.007812 13.105469 24.300781 12.859375 23.351562 L 17.140625 23.351562 C 17.042969 23.726562 16.847656 24.078125 16.566406 24.359375 Z M 15 4.003906 C 15.609375 4.003906 16.105469 4.496094 16.105469 5.105469 C 16.105469 5.132812 16.105469 5.160156 16.101562 5.183594 C 16.035156 5.175781 15.96875 5.171875 15.902344 5.164062 C 15.84375 5.15625 15.78125 5.148438 15.722656 5.144531 C 15.480469 5.121094 15.238281 5.105469 15 5.105469 C 14.761719 5.105469 14.519531 5.121094 14.277344 5.144531 C 14.21875 5.148438 14.160156 5.15625 14.101562 5.164062 C 14.03125 5.171875 13.964844 5.175781 13.898438 5.183594 C 13.894531 5.160156 13.894531 5.132812 13.894531 5.105469 C 13.894531 4.496094 14.390625 4.003906 15 4.003906 Z M 13.613281 6.355469 C 14.304688 6.214844 15.003906 6.179688 15.695312 6.25 C 15.925781 6.273438 16.15625 6.308594 16.386719 6.355469 C 17.640625 6.628906 18.78125 7.25 19.6875 8.15625 C 20.941406 9.410156 21.632812 11.074219 21.632812 12.847656 L 21.632812 18.695312 C 21.632812 19.292969 21.773438 19.894531 22.042969 20.425781 L 22.949219 22.242188 L 7.050781 22.242188 L 7.957031 20.425781 C 8.226562 19.894531 8.367188 19.292969 8.367188 18.695312 L 8.367188 12.847656 C 8.367188 9.730469 10.574219 7 13.613281 6.355469 " fill-opacity="1" fill-rule="nonzero"/></g></svg>