<svg xmlns="http://www.w3.org/2000/svg" xmlns:xlink="http://www.w3.org/1999/xlink" width="40" zoomAndPan="magnify" viewBox="0 0 30 30.000001" height="40" preserveAspectRatio="xMidYMid meet" version="1.0"><defs><clipPath id="e3d3a65a9d"><path d="M 5.148438 5.09375 L 24.746094 5.09375 L 24.746094 23.964844 L 5.148438 23.964844 Z M 5.148438 5.09375 " clip-rule="nonzero"/></clipPath></defs><g clip-path="url(#e3d3a65a9d)"><path fill="#ffffff" d="M 24.554688 22.648438 L 20.257812 18.351562 C 21.261719 16.972656 21.851562 15.28125 21.851562 13.449219 C 21.851562 8.84375 18.105469 5.097656 13.5 5.097656 C 8.894531 5.097656 5.148438 8.84375 5.148438 13.449219 C 5.148438 18.054688 8.894531 21.800781 13.5 21.800781 C 15.734375 21.800781 17.765625 20.917969 19.265625 19.484375 L 23.492188 23.710938 C 23.636719 23.859375 23.832031 23.929688 24.023438 23.929688 C 24.214844 23.929688 24.410156 23.859375 24.554688 23.710938 C 24.847656 23.417969 24.847656 22.941406 24.554688 22.648438 Z M 13.5 20.296875 C 9.726562 20.296875 6.652344 17.226562 6.652344 13.449219 C 6.652344 9.671875 9.726562 6.601562 13.5 6.601562 C 17.277344 6.601562 20.347656 9.671875 20.347656 13.449219 C 20.347656 17.226562 17.277344 20.296875 13.5 20.296875 Z M 13.5 20.296875 " fill-opacity="1" fill-rule="nonzero"/></g></svg>