<svg xmlns="http://www.w3.org/2000/svg" xmlns:xlink="http://www.w3.org/1999/xlink" width="40" zoomAndPan="magnify" viewBox="0 0 30 30.000001" height="40" preserveAspectRatio="xMidYMid meet" version="1.0"><defs><clipPath id="2bf7e1c79a"><path d="M 0.484375 0 L 29.515625 0 L 29.515625 29.03125 L 0.484375 29.03125 Z M 0.484375 0 " clip-rule="nonzero"/></clipPath><linearGradient x1="20" gradientTransform="matrix(0.725806, 0, 0, 0.725806, 0.48387, 0.00000193548)" y1="-0" x2="20" gradientUnits="userSpaceOnUse" y2="39.999998" id="c9a8ca91af"><stop stop-opacity="1" stop-color="rgb(100%, 69.018555%, 16.468811%)" offset="0"/><stop stop-opacity="1" stop-color="rgb(100%, 69.158936%, 16.612244%)" offset="0.015625"/><stop stop-opacity="1" stop-color="rgb(100%, 69.441223%, 16.900635%)" offset="0.03125"/><stop stop-opacity="1" stop-color="rgb(100%, 69.723511%, 17.189026%)" offset="0.046875"/><stop stop-opacity="1" stop-color="rgb(100%, 70.005798%, 17.475891%)" offset="0.0625"/><stop stop-opacity="1" stop-color="rgb(100%, 70.28656%, 17.764282%)" offset="0.078125"/><stop stop-opacity="1" stop-color="rgb(100%, 70.568848%, 18.052673%)" offset="0.09375"/><stop stop-opacity="1" stop-color="rgb(100%, 70.851135%, 18.341064%)" offset="0.109375"/><stop stop-opacity="1" stop-color="rgb(100%, 71.133423%, 18.62793%)" offset="0.125"/><stop stop-opacity="1" stop-color="rgb(100%, 71.414185%, 18.916321%)" offset="0.140625"/><stop stop-opacity="1" stop-color="rgb(100%, 71.696472%, 19.204712%)" offset="0.15625"/><stop stop-opacity="1" stop-color="rgb(100%, 71.97876%, 19.493103%)" offset="0.171875"/><stop stop-opacity="1" stop-color="rgb(100%, 72.259521%, 19.779968%)" offset="0.1875"/><stop stop-opacity="1" stop-color="rgb(100%, 72.541809%, 20.068359%)" offset="0.203125"/><stop stop-opacity="1" stop-color="rgb(100%, 72.824097%, 20.35675%)" offset="0.21875"/><stop stop-opacity="1" stop-color="rgb(100%, 73.106384%, 20.643616%)" offset="0.234375"/><stop stop-opacity="1" stop-color="rgb(100%, 73.387146%, 20.932007%)" offset="0.25"/><stop stop-opacity="1" stop-color="rgb(100%, 73.669434%, 21.220398%)" offset="0.265625"/><stop stop-opacity="1" stop-color="rgb(100%, 73.951721%, 21.508789%)" offset="0.28125"/><stop stop-opacity="1" stop-color="rgb(100%, 74.234009%, 21.795654%)" offset="0.296875"/><stop stop-opacity="1" stop-color="rgb(100%, 74.514771%, 22.084045%)" offset="0.3125"/><stop stop-opacity="1" stop-color="rgb(100%, 74.797058%, 22.372437%)" offset="0.328125"/><stop stop-opacity="1" stop-color="rgb(100%, 75.079346%, 22.659302%)" offset="0.34375"/><stop stop-opacity="1" stop-color="rgb(100%, 75.360107%, 22.947693%)" offset="0.359375"/><stop stop-opacity="1" stop-color="rgb(100%, 75.642395%, 23.236084%)" offset="0.375"/><stop stop-opacity="1" stop-color="rgb(100%, 75.924683%, 23.524475%)" offset="0.390625"/><stop stop-opacity="1" stop-color="rgb(100%, 76.20697%, 23.81134%)" offset="0.40625"/><stop stop-opacity="1" stop-color="rgb(100%, 76.487732%, 24.099731%)" offset="0.421875"/><stop stop-opacity="1" stop-color="rgb(100%, 76.77002%, 24.388123%)" offset="0.4375"/><stop stop-opacity="1" stop-color="rgb(100%, 77.052307%, 24.676514%)" offset="0.453125"/><stop stop-opacity="1" stop-color="rgb(100%, 77.334595%, 24.963379%)" offset="0.46875"/><stop stop-opacity="1" stop-color="rgb(100%, 77.615356%, 25.25177%)" offset="0.484375"/><stop stop-opacity="1" stop-color="rgb(100%, 77.897644%, 25.540161%)" offset="0.5"/><stop stop-opacity="1" stop-color="rgb(100%, 78.179932%, 25.827026%)" offset="0.515625"/><stop stop-opacity="1" stop-color="rgb(100%, 78.462219%, 26.115417%)" offset="0.53125"/><stop stop-opacity="1" stop-color="rgb(100%, 78.742981%, 26.403809%)" offset="0.546875"/><stop stop-opacity="1" stop-color="rgb(100%, 79.025269%, 26.6922%)" offset="0.5625"/><stop stop-opacity="1" stop-color="rgb(100%, 79.307556%, 26.979065%)" offset="0.578125"/><stop stop-opacity="1" stop-color="rgb(100%, 79.588318%, 27.267456%)" offset="0.59375"/><stop stop-opacity="1" stop-color="rgb(100%, 79.870605%, 27.555847%)" offset="0.609375"/><stop stop-opacity="1" stop-color="rgb(100%, 80.152893%, 27.842712%)" offset="0.625"/><stop stop-opacity="1" stop-color="rgb(100%, 80.435181%, 28.131104%)" offset="0.640625"/><stop stop-opacity="1" stop-color="rgb(100%, 80.715942%, 28.419495%)" offset="0.65625"/><stop stop-opacity="1" stop-color="rgb(100%, 80.99823%, 28.707886%)" offset="0.671875"/><stop stop-opacity="1" stop-color="rgb(100%, 81.280518%, 28.994751%)" offset="0.6875"/><stop stop-opacity="1" stop-color="rgb(100%, 81.562805%, 29.283142%)" offset="0.703125"/><stop stop-opacity="1" stop-color="rgb(100%, 81.843567%, 29.571533%)" offset="0.71875"/><stop stop-opacity="1" stop-color="rgb(100%, 82.125854%, 29.859924%)" offset="0.734375"/><stop stop-opacity="1" stop-color="rgb(100%, 82.408142%, 30.14679%)" offset="0.75"/><stop stop-opacity="1" stop-color="rgb(100%, 82.688904%, 30.435181%)" offset="0.765625"/><stop stop-opacity="1" stop-color="rgb(100%, 82.971191%, 30.723572%)" offset="0.78125"/><stop stop-opacity="1" stop-color="rgb(100%, 83.253479%, 31.010437%)" offset="0.796875"/><stop stop-opacity="1" stop-color="rgb(100%, 83.535767%, 31.298828%)" offset="0.8125"/><stop stop-opacity="1" stop-color="rgb(100%, 83.816528%, 31.587219%)" offset="0.828125"/><stop stop-opacity="1" stop-color="rgb(100%, 84.098816%, 31.87561%)" offset="0.84375"/><stop stop-opacity="1" stop-color="rgb(100%, 84.381104%, 32.162476%)" offset="0.859375"/><stop stop-opacity="1" stop-color="rgb(100%, 84.663391%, 32.450867%)" offset="0.875"/><stop stop-opacity="1" stop-color="rgb(100%, 84.944153%, 32.739258%)" offset="0.890625"/><stop stop-opacity="1" stop-color="rgb(100%, 85.22644%, 33.027649%)" offset="0.90625"/><stop stop-opacity="1" stop-color="rgb(100%, 85.508728%, 33.314514%)" offset="0.921875"/><stop stop-opacity="1" stop-color="rgb(100%, 85.78949%, 33.602905%)" offset="0.9375"/><stop stop-opacity="1" stop-color="rgb(100%, 86.071777%, 33.891296%)" offset="0.953125"/><stop stop-opacity="1" stop-color="rgb(100%, 86.354065%, 34.178162%)" offset="0.96875"/><stop stop-opacity="1" stop-color="rgb(100%, 86.636353%, 34.466553%)" offset="0.984375"/><stop stop-opacity="1" stop-color="rgb(100%, 86.917114%, 34.754944%)" offset="1"/></linearGradient><clipPath id="3e49c50452"><path d="M 21.863281 7.738281 L 25.492188 7.738281 L 25.492188 11.367188 L 21.863281 11.367188 Z M 21.863281 7.738281 " clip-rule="nonzero"/></clipPath><clipPath id="01f46c9656"><path d="M 23.679688 7.738281 C 22.675781 7.738281 21.863281 8.550781 21.863281 9.550781 C 21.863281 10.554688 22.675781 11.367188 23.679688 11.367188 C 24.679688 11.367188 25.492188 10.554688 25.492188 9.550781 C 25.492188 8.550781 24.679688 7.738281 23.679688 7.738281 Z M 23.679688 7.738281 " clip-rule="nonzero"/></clipPath><clipPath id="3f3c3c1561"><path d="M 0.863281 0.738281 L 4.492188 0.738281 L 4.492188 4.367188 L 0.863281 4.367188 Z M 0.863281 0.738281 " clip-rule="nonzero"/></clipPath><clipPath id="36c7761aba"><path d="M 2.679688 0.738281 C 1.675781 0.738281 0.863281 1.550781 0.863281 2.550781 C 0.863281 3.554688 1.675781 4.367188 2.679688 4.367188 C 3.679688 4.367188 4.492188 3.554688 4.492188 2.550781 C 4.492188 1.550781 3.679688 0.738281 2.679688 0.738281 Z M 2.679688 0.738281 " clip-rule="nonzero"/></clipPath><clipPath id="20a9081237"><rect x="0" width="5" y="0" height="5"/></clipPath><clipPath id="4ddc66b831"><path d="M 5.316406 7.738281 L 8.945312 7.738281 L 8.945312 11.367188 L 5.316406 11.367188 Z M 5.316406 7.738281 " clip-rule="nonzero"/></clipPath><clipPath id="2b427bab7e"><path d="M 7.128906 7.738281 C 6.128906 7.738281 5.316406 8.550781 5.316406 9.550781 C 5.316406 10.554688 6.128906 11.367188 7.128906 11.367188 C 8.132812 11.367188 8.945312 10.554688 8.945312 9.550781 C 8.945312 8.550781 8.132812 7.738281 7.128906 7.738281 Z M 7.128906 7.738281 " clip-rule="nonzero"/></clipPath><clipPath id="c4f14e4b02"><path d="M 0.316406 0.738281 L 3.945312 0.738281 L 3.945312 4.367188 L 0.316406 4.367188 Z M 0.316406 0.738281 " clip-rule="nonzero"/></clipPath><clipPath id="409760b61e"><path d="M 2.128906 0.738281 C 1.128906 0.738281 0.316406 1.550781 0.316406 2.550781 C 0.316406 3.554688 1.128906 4.367188 2.128906 4.367188 C 3.132812 4.367188 3.945312 3.554688 3.945312 2.550781 C 3.945312 1.550781 3.132812 0.738281 2.128906 0.738281 Z M 2.128906 0.738281 " clip-rule="nonzero"/></clipPath><clipPath id="81de01f105"><rect x="0" width="4" y="0" height="5"/></clipPath><clipPath id="1602a2d692"><path d="M 9.398438 14.515625 L 23.914062 14.515625 L 23.914062 21.046875 L 9.398438 21.046875 Z M 9.398438 14.515625 " clip-rule="nonzero"/></clipPath></defs><g clip-path="url(#2bf7e1c79a)"><path fill="url(#c9a8ca91af)" d="M 0.484375 0 L 0.484375 29.03125 L 29.515625 29.03125 L 29.515625 0 Z M 0.484375 0 " fill-rule="nonzero"/></g><g clip-path="url(#3e49c50452)"><g clip-path="url(#01f46c9656)"><g transform="matrix(1, 0, 0, 1, 21, 7)"><g clip-path="url(#20a9081237)"><g clip-path="url(#3f3c3c1561)"><g clip-path="url(#36c7761aba)"><path fill="#ffffff" d="M 0.863281 0.738281 L 4.492188 0.738281 L 4.492188 4.367188 L 0.863281 4.367188 Z M 0.863281 0.738281 " fill-opacity="1" fill-rule="nonzero"/></g></g></g></g></g></g><g clip-path="url(#4ddc66b831)"><g clip-path="url(#2b427bab7e)"><g transform="matrix(1, 0, 0, 1, 5, 7)"><g clip-path="url(#81de01f105)"><g clip-path="url(#c4f14e4b02)"><g clip-path="url(#409760b61e)"><path fill="#ffffff" d="M 0.316406 0.738281 L 3.945312 0.738281 L 3.945312 4.367188 L 0.316406 4.367188 Z M 0.316406 0.738281 " fill-opacity="1" fill-rule="nonzero"/></g></g></g></g></g></g><g clip-path="url(#1602a2d692)"><path fill="#ffffff" d="M 16.53125 21.253906 C 16.121094 21.253906 15.71875 21.21875 15.316406 21.148438 C 14.910156 21.078125 14.519531 20.972656 14.132812 20.832031 C 13.75 20.691406 13.378906 20.519531 13.027344 20.316406 C 12.671875 20.113281 12.335938 19.878906 12.023438 19.617188 C 11.710938 19.355469 11.421875 19.066406 11.15625 18.753906 C 10.894531 18.441406 10.65625 18.109375 10.453125 17.757812 C 10.246094 17.402344 10.074219 17.035156 9.929688 16.652344 C 9.789062 16.269531 9.683594 15.875 9.609375 15.472656 C 9.570312 15.265625 9.613281 15.074219 9.730469 14.898438 C 9.851562 14.726562 10.015625 14.617188 10.222656 14.578125 C 10.429688 14.542969 10.621094 14.582031 10.796875 14.703125 C 10.96875 14.820312 11.078125 14.984375 11.113281 15.191406 C 11.238281 15.824219 11.460938 16.417969 11.785156 16.972656 C 12.113281 17.527344 12.523438 18.011719 13.019531 18.425781 C 13.511719 18.839844 14.0625 19.15625 14.664062 19.378906 C 15.269531 19.601562 15.894531 19.714844 16.539062 19.722656 C 16.558594 19.722656 16.582031 19.722656 16.601562 19.722656 C 17.242188 19.710938 17.859375 19.59375 18.457031 19.371094 C 19.054688 19.144531 19.597656 18.824219 20.085938 18.414062 C 20.574219 18 20.976562 17.515625 21.296875 16.964844 C 21.617188 16.410156 21.835938 15.820312 21.953125 15.191406 C 21.988281 14.984375 22.097656 14.820312 22.269531 14.703125 C 22.445312 14.582031 22.636719 14.542969 22.84375 14.578125 C 23.050781 14.617188 23.214844 14.722656 23.335938 14.898438 C 23.453125 15.074219 23.496094 15.265625 23.457031 15.472656 C 23.382812 15.871094 23.277344 16.257812 23.136719 16.640625 C 22.996094 17.019531 22.824219 17.382812 22.621094 17.734375 C 22.417969 18.085938 22.183594 18.414062 21.925781 18.726562 C 21.664062 19.035156 21.378906 19.320312 21.070312 19.582031 C 20.761719 19.84375 20.433594 20.078125 20.082031 20.28125 C 19.734375 20.488281 19.371094 20.660156 18.988281 20.800781 C 18.609375 20.945312 18.222656 21.054688 17.824219 21.128906 C 17.425781 21.203125 17.027344 21.246094 16.621094 21.253906 Z M 16.53125 21.253906 " fill-opacity="1" fill-rule="nonzero"/></g></svg>